<svg width="24" height="15" xmlns="http://www.w3.org/2000/svg">

 <g width="0" height="0">
  <title width="0" height="0">Layer 1</title>
  <path stroke-width="7.5" fill="#ffffff" stroke="#ffffff" id="imagebot_2" d="M 12.145 15 C 15.617 15 14.379 12.802 14.647 12.170000000000002 C 14.643 11.698 14.639 11.244 14.655 10.968 C 14.875 11.03 15.394 11.293 16.466 12.335 C 18.121 14.004999999999999 18.544 15 19.881 15 L 22.342 15 C 23.122 15 23.528 14.677 23.731 14.405999999999999 C 23.927 14.143999999999998 24.119 13.684000000000001 23.909 12.968 C 23.36 11.244 20.158 8.267 19.959 7.952999999999999 C 19.989 7.895 20.037 7.818 20.062 7.7780000000000005 L 20.06 7.7780000000000005 C 20.692 6.943 23.104 3.3289999999999997 23.459 1.883 C 23.46 1.8810000000000002 23.461 1.8780000000000001 23.461 1.875 C 23.653 1.2149999999999999 23.477 0.7869999999999999 23.295 0.5449999999999999 C 23.021 0.18299999999999983 22.585 0 21.996 0 L 19.535 0 C 18.711 0 18.086 0.41500000000000004 17.77 1.1719999999999997 C 17.241 2.5170000000000003 15.755 5.2829999999999995 14.641 6.2620000000000005 C 14.607 4.875 14.63 3.8160000000000007 14.648 3.029 C 14.684 1.4939999999999998 14.8 0 13.207 0 L 9.339 0 C 8.341 0 7.386 1.0899999999999999 8.42 2.3840000000000003 C 9.324 3.5180000000000007 8.745 4.15 8.94 7.295999999999999 C 8.18 6.481 6.828 4.279999999999999 5.872 1.4669999999999996 C 5.604 0.7060000000000004 5.198 0.001000000000000334 4.055 0.001000000000000334 L 1.5939999999999999 0.001000000000000334 C 0.596 0.001000000000000334 0 0.5449999999999999 0 1.4560000000000004 C 0 3.5020000000000007 4.529 15 12.145 15 z M 4.055 1.5010000000000003 C 4.272 1.5010000000000003 4.2940000000000005 1.5010000000000003 4.455 1.9580000000000002 C 5.434 4.840999999999999 7.63 9.107 9.234 9.107 C 10.439 9.107 10.439 7.872 10.439 7.407 L 10.438 3.705 C 10.372 2.4800000000000004 9.926 1.87 9.633 1.5 L 13.141 1.5039999999999996 C 13.143 1.521 13.121 5.599 13.151 6.587 C 13.151 7.99 14.265 8.794 16.004 7.034000000000001 C 17.839 4.962999999999999 19.108 1.867 19.159 1.7409999999999997 C 19.234 1.561 19.299 1.5 19.535 1.5 L 21.996 1.5 L 22.006 1.5 C 22.005 1.5030000000000001 22.005 1.5060000000000002 22.004 1.5090000000000003 C 21.779 2.559 19.558 5.904999999999999 18.815 6.944000000000001 C 18.803 6.960000000000001 18.792 6.977 18.781 6.994 C 18.454 7.5280000000000005 18.188 8.118 18.826 8.948 L 18.827 8.948 C 18.885 9.018 19.036 9.182 19.256 9.41 C 19.94 10.116 22.286 12.530000000000001 22.494 13.489999999999998 C 22.356 13.512 22.206 13.495999999999999 19.881 13.501000000000001 C 19.386 13.501000000000001 18.999 12.761 17.522 11.271 C 16.194 9.979 15.332 9.451 14.547 9.451 C 13.023 9.451 13.134 10.688 13.148 12.184000000000001 C 13.153 13.806000000000001 13.143 13.293 13.154 13.395 C 13.065 13.43 12.81 13.5 12.145 13.5 C 5.8 13.5 1.668 3.4290000000000003 1.509 1.5039999999999996 C 1.564 1.4989999999999997 2.321 1.5019999999999998 4.055 1.5010000000000003 z" width="0" height="0"/>
 </g>
</svg>